<svg xmlns="http://www.w3.org/2000/svg" xmlns:xlink="http://www.w3.org/1999/xlink" width="251.756" height="30.316" viewBox="0 0 251.756 30.316">
  <defs>
    <clipPath id="clip-path">
      <rect id="Rectangle_2305" data-name="Rectangle 2305" width="116.311" height="21.798" transform="translate(0 0)" fill="#fff"/>
    </clipPath>
  </defs>
  <g id="Group_4866" data-name="Group 4866" transform="translate(-835 -9469)">
    <path id="Path_2270" data-name="Path 2270" d="M88.7,9.144h12.486v2.332h-4.91V24.585h-2.7V11.475H88.691V9.144ZM100.655,13.4h2.308v2.158h.043a2.535,2.535,0,0,1,.424-.883,3.92,3.92,0,0,1,.752-.785,3.993,3.993,0,0,1,.979-.577,2.989,2.989,0,0,1,1.1-.218c.283,0,.49.011.6.022s.218.033.338.044V15.54c-.174-.033-.349-.055-.533-.076a4.512,4.512,0,0,0-.533-.033,2.885,2.885,0,0,0-1.176.251,2.716,2.716,0,0,0-.958.73,3.728,3.728,0,0,0-.653,1.2,5.093,5.093,0,0,0-.239,1.646v5.318h-2.461V13.4Zm17.852,11.18H116.09V23.026h-.043a3.352,3.352,0,0,1-1.35,1.351,3.688,3.688,0,0,1-1.828.512,4.1,4.1,0,0,1-3.19-1.09,4.823,4.823,0,0,1-.979-3.3V13.4h2.46v6.854a3.012,3.012,0,0,0,.566,2.081,2.05,2.05,0,0,0,1.579.61,3.019,3.019,0,0,0,1.295-.24,2.19,2.19,0,0,0,.839-.643,2.483,2.483,0,0,0,.468-.959,4.712,4.712,0,0,0,.141-1.21V13.415h2.46ZM122.7,21a1.9,1.9,0,0,0,.816,1.515,3.294,3.294,0,0,0,1.71.436,7.288,7.288,0,0,0,.783-.055,3.29,3.29,0,0,0,.828-.207,1.585,1.585,0,0,0,.641-.447,1.08,1.08,0,0,0,.229-.763,1.052,1.052,0,0,0-.349-.774,2.436,2.436,0,0,0-.827-.49,8.27,8.27,0,0,0-1.153-.316c-.435-.087-.872-.185-1.318-.283a12.533,12.533,0,0,1-1.328-.37,4.044,4.044,0,0,1-1.142-.589,2.575,2.575,0,0,1-.806-.937,2.926,2.926,0,0,1-.3-1.417,2.556,2.556,0,0,1,.446-1.526,3.384,3.384,0,0,1,1.121-.992,5.2,5.2,0,0,1,1.513-.534,9.215,9.215,0,0,1,1.59-.153,7.4,7.4,0,0,1,1.654.185,4.262,4.262,0,0,1,1.427.6,3.53,3.53,0,0,1,1.056,1.068,3.729,3.729,0,0,1,.533,1.591h-2.569a1.534,1.534,0,0,0-.806-1.188,3.3,3.3,0,0,0-1.459-.305,4.582,4.582,0,0,0-.621.044,3.414,3.414,0,0,0-.675.164,1.478,1.478,0,0,0-.533.349.843.843,0,0,0-.217.6.934.934,0,0,0,.315.73,2.654,2.654,0,0,0,.816.469,8.288,8.288,0,0,0,1.154.316c.435.087.881.185,1.339.283s.881.229,1.316.37a3.992,3.992,0,0,1,1.154.588,2.914,2.914,0,0,1,.816.926,2.834,2.834,0,0,1,.315,1.384,3.015,3.015,0,0,1-.457,1.689,3.613,3.613,0,0,1-1.176,1.122,5.511,5.511,0,0,1-1.611.632,8.066,8.066,0,0,1-1.753.2,7.419,7.419,0,0,1-1.959-.24,4.773,4.773,0,0,1-1.557-.719,3.568,3.568,0,0,1-1.033-1.21,3.969,3.969,0,0,1-.4-1.722H122.7Zm8.121-7.6h1.862V10.048h2.46V13.4h2.22v1.842h-2.22v5.972a6.152,6.152,0,0,0,.032.676,1.251,1.251,0,0,0,.152.479.7.7,0,0,0,.36.294,1.752,1.752,0,0,0,.653.1c.174,0,.348,0,.521-.011a2.853,2.853,0,0,0,.523-.076v1.907c-.272.033-.544.055-.795.087a6.322,6.322,0,0,1-.794.044,5.5,5.5,0,0,1-1.568-.185,2.036,2.036,0,0,1-.926-.545,1.9,1.9,0,0,1-.457-.894,6.67,6.67,0,0,1-.141-1.231V15.268h-1.862V13.4Zm8.284,0h2.329v1.515h.044a3.039,3.039,0,0,1,1.447-1.395,4.771,4.771,0,0,1,2.014-.425,5.208,5.208,0,0,1,2.3.469,4.485,4.485,0,0,1,1.633,1.275,5.57,5.57,0,0,1,.969,1.9,8.26,8.26,0,0,1,.032,4.49,5.821,5.821,0,0,1-.881,1.874,4.336,4.336,0,0,1-1.5,1.3,4.455,4.455,0,0,1-2.145.49,6,6,0,0,1-1.078-.1,4.744,4.744,0,0,1-1.035-.316,3.733,3.733,0,0,1-.914-.556,3.471,3.471,0,0,1-.709-.785h-.043v5.579H139.1Zm8.6,5.6a5.569,5.569,0,0,0-.2-1.471,3.967,3.967,0,0,0-.587-1.264,3,3,0,0,0-.97-.883,2.988,2.988,0,0,0-3.679.741,4.8,4.8,0,0,0-.783,2.877,5.529,5.529,0,0,0,.206,1.569,3.506,3.506,0,0,0,.621,1.242,2.936,2.936,0,0,0,.979.817,3.066,3.066,0,0,0,2.754-.044,3.014,3.014,0,0,0,.958-.893,3.716,3.716,0,0,0,.544-1.253A6.988,6.988,0,0,0,147.7,19.005Zm4.343-9.862h2.461v2.332h-2.461Zm0,4.261h2.461v11.18h-2.461Zm4.66-4.261h2.46V24.585h-2.46Zm10,15.746a6.077,6.077,0,0,1-2.385-.447,5,5,0,0,1-2.874-3.084,7.194,7.194,0,0,1-.381-2.376,7.109,7.109,0,0,1,.381-2.354,5.309,5.309,0,0,1,1.1-1.863,5.008,5.008,0,0,1,1.774-1.22,6.583,6.583,0,0,1,4.768,0,5,5,0,0,1,2.874,3.084,7.109,7.109,0,0,1,.381,2.354,7.194,7.194,0,0,1-.381,2.376,5.309,5.309,0,0,1-1.1,1.863,5.008,5.008,0,0,1-1.774,1.22A6.075,6.075,0,0,1,166.71,24.89Zm0-1.951a2.848,2.848,0,0,0,1.425-.349,3.036,3.036,0,0,0,.99-.9,4.064,4.064,0,0,0,.578-1.264,5.653,5.653,0,0,0,0-2.866,3.731,3.731,0,0,0-.578-1.264,3,3,0,0,0-.99-.894,3.091,3.091,0,0,0-2.852,0,3.126,3.126,0,0,0-.99.894,3.95,3.95,0,0,0-.578,1.264,5.653,5.653,0,0,0,0,2.866,3.832,3.832,0,0,0,.578,1.264,3.036,3.036,0,0,0,.99.9A2.74,2.74,0,0,0,166.71,22.939Zm6.356-9.535h1.862V10.048h2.46V13.4h2.221v1.842h-2.221v5.972a6.157,6.157,0,0,0,.032.676,1.252,1.252,0,0,0,.153.479.694.694,0,0,0,.358.294,1.752,1.752,0,0,0,.653.1c.174,0,.349,0,.523-.011a2.883,2.883,0,0,0,.523-.076v1.907c-.272.033-.544.055-.795.087a6.353,6.353,0,0,1-.795.044,5.5,5.5,0,0,1-1.568-.185,2.032,2.032,0,0,1-.924-.545,1.893,1.893,0,0,1-.458-.894,6.773,6.773,0,0,1-.141-1.231V15.268h-1.861V13.4Z" transform="translate(778.705 9470.602)"/>
    <path id="Path_2271" data-name="Path 2271" d="M91.2,10.925H79.923L76.44.181,72.946,10.925l-11.278-.011L70.8,17.561,67.307,28.3l9.133-6.636L85.562,28.3,82.079,17.561Z" transform="translate(773.332 9468.819)" fill="#00b67a"/>
    <path id="Path_2272" data-name="Path 2272" d="M80.411,17.109l-.784-2.43-5.639,4.1Z" transform="translate(775.782 9471.702)" fill="#005128"/>
    <g id="Group_2493" data-name="Group 2493" transform="translate(970.445 9477.518)" clip-path="url(#clip-path)">
      <path id="Path_2273" data-name="Path 2273" d="M174.648,7.29h21.809V29.077H174.648Zm23.627,0h21.808V29.077H198.275Zm23.626,0h21.808V29.077H221.9Zm23.626,0h21.808V29.077H245.526Z" transform="translate(-174.648 -7.284)" fill="#00b67a"/>
      <rect id="Rectangle_2304" data-name="Rectangle 2304" width="22.051" height="22.051" transform="translate(94.718 0)" fill="#cfcfcf"/>
      <path id="Path_2274" data-name="Path 2274" d="M185.012,21.363l3.316-.84,1.386,4.267Zm7.633-5.515h-5.838l-1.795-5.492-1.795,5.492h-5.838l4.725,3.4-1.795,5.492,4.726-3.4,2.907-2.088Zm15.993,5.515,3.317-.84,1.385,4.267Zm7.633-5.515h-5.838l-1.795-5.492-1.795,5.492H201l4.725,3.4-1.795,5.492,4.726-3.4,2.907-2.088Zm15.993,5.515,3.317-.84,1.386,4.267Zm7.633-5.515h-5.838l-1.795-5.492-1.795,5.492H224.63l4.726,3.4-1.795,5.492,4.725-3.4,2.908-2.088Zm15.993,5.515,3.317-.84,1.386,4.267Zm7.633-5.515h-5.838l-1.795-5.492-1.795,5.492h-5.838l4.726,3.4-1.795,5.492,4.725-3.4,2.908-2.088Zm15.993,5.515,3.317-.84,1.386,4.267Zm7.633-5.515h-5.838l-1.795-5.492-1.795,5.492h-5.838l4.726,3.4-1.795,5.492,4.725-3.4,2.908-2.088Z" transform="translate(-174.105 -6.675)" fill="#fff"/>
    </g>
  </g>
</svg>
