
<svg width="840" height="227" viewBox="0 0 840 227" fill="none" xmlns="http://www.w3.org/2000/svg">
    <g clip-path="url(#clip0_110_16)">
        <path d="M185.096 47.6396L178.863 53.8724C193.736 70.1366 201.983 91.3778 201.983 113.417C201.983 135.456 193.736 156.697 178.863 172.961L185.096 179.194C201.636 161.253 210.819 137.746 210.819 113.344C210.819 88.9426 201.636 65.4347 185.096 47.4941V47.6396Z" fill="#FF8B03"/>
        <path d="M54.0189 48.1801C70.2831 33.3075 91.5243 25.0599 113.563 25.0599C135.602 25.0599 156.843 33.3075 173.108 48.1801L179.341 41.9473C161.4 25.4074 137.892 16.2246 113.491 16.2246C89.0891 16.2246 65.5812 25.4074 47.6406 41.9473L54.0189 48.1801Z" fill="#FF8B03"/>
        <path d="M48.1782 173.024C33.3232 156.763 25.0864 135.535 25.0864 113.511C25.0864 91.4863 33.3232 70.2581 48.1782 53.9975L41.9453 47.7646C25.4054 65.7052 16.2227 89.2131 16.2227 113.615C16.2227 138.016 25.4054 161.524 41.9453 179.465L48.1782 173.024Z" fill="#FF8B03"/>
        <path d="M173.025 178.778C156.761 193.651 135.519 201.899 113.48 201.899C91.4413 201.899 70.2002 193.651 53.936 178.778L47.7031 185.011C65.6437 201.551 89.1516 210.734 113.553 210.734C137.955 210.734 161.462 201.551 179.403 185.011L173.025 178.778Z" fill="#FF8B03"/>
        <path d="M152.851 92.7032C151.605 79.6974 140.386 75.3344 126.196 74.0047V56.0957H115.226V73.6723C112.338 73.6723 109.388 73.6723 106.458 73.6723V56.0957H95.5715V74.1294H73.3203V85.8679C73.3203 85.8679 81.423 85.7225 81.2983 85.8679C82.7593 85.7072 84.2256 86.1199 85.3883 87.019C86.551 87.9182 87.3193 89.2335 87.5312 90.688V140.052C87.5 140.565 87.3662 141.066 87.1378 141.527C86.9094 141.987 86.5911 142.397 86.2015 142.732C85.8193 143.074 85.3719 143.334 84.8864 143.499C84.4008 143.663 83.887 143.727 83.376 143.688C83.5214 143.813 75.3979 143.688 75.3979 143.688L73.3203 156.798H95.3638V175.122H106.334V157.068H115.101V175.039H126.092V156.922C144.624 155.8 157.547 151.23 159.167 133.882C160.476 119.92 153.911 113.687 143.419 111.173C149.797 108.036 153.745 102.219 152.851 92.7032ZM137.477 131.721C137.477 145.35 114.125 143.792 106.687 143.792V119.608C114.125 119.629 137.477 117.489 137.477 131.721ZM132.387 97.648C132.387 110.114 112.899 108.597 106.708 108.597V86.6158C112.899 86.6158 132.387 84.6629 132.387 97.648Z" fill="#F09242"/>
        <path d="M113.479 227C91.0329 226.996 69.0917 220.336 50.4299 207.863C31.7681 195.39 17.2237 177.664 8.63575 156.925C0.0477777 136.186 -2.19815 113.367 2.18194 91.3522C6.56202 69.3373 17.3714 49.1154 33.2434 33.2434C49.1154 17.3714 69.3373 6.56202 91.3522 2.18194C113.367 -2.19815 136.186 0.0477777 156.925 8.63575C177.664 17.2237 195.39 31.7681 207.863 50.4299C220.336 69.0917 226.996 91.0329 227 113.479C227.003 128.388 224.068 143.151 218.364 156.925C212.66 170.699 204.299 183.215 193.757 193.757C183.215 204.299 170.699 212.66 156.925 218.364C143.151 224.068 128.388 227.003 113.479 227V227ZM113.479 8.85068C92.7992 8.86711 72.5882 15.014 55.4008 26.5143C38.2134 38.0146 24.8211 54.3521 16.9167 73.4619C9.01227 92.5717 6.95053 113.596 10.9921 133.877C15.0336 154.159 24.997 172.786 39.6229 187.407C54.2488 202.027 72.8806 211.983 93.1635 216.016C113.446 220.05 134.47 217.979 153.576 210.067C172.683 202.155 189.015 188.757 200.509 171.565C212.002 154.373 218.141 134.159 218.149 113.479C218.155 99.7342 215.451 86.1229 210.192 73.4236C204.933 60.7243 197.223 49.1861 187.502 39.4688C177.781 29.7515 166.24 22.0457 153.538 16.792C140.837 11.5383 127.224 8.83976 113.479 8.85068V8.85068Z" fill="#C88714"/>
    </g>
    <path d="M265.5 149V79.1818H295.773C301.091 79.1818 305.557 79.8977 309.17 81.3295C312.807 82.7614 315.545 84.7841 317.386 87.3977C319.25 90.0114 320.182 93.0909 320.182 96.6364C320.182 99.2045 319.614 101.545 318.477 103.659C317.364 105.773 315.795 107.545 313.773 108.977C311.75 110.386 309.386 111.364 306.682 111.909V112.591C309.682 112.705 312.409 113.466 314.864 114.875C317.318 116.261 319.273 118.182 320.727 120.636C322.182 123.068 322.909 125.932 322.909 129.227C322.909 133.045 321.909 136.443 319.909 139.42C317.932 142.398 315.114 144.739 311.455 146.443C307.795 148.148 303.432 149 298.364 149H265.5ZM284.455 133.864H293.318C296.5 133.864 298.886 133.273 300.477 132.091C302.068 130.886 302.864 129.114 302.864 126.773C302.864 125.136 302.489 123.75 301.739 122.614C300.989 121.477 299.92 120.614 298.534 120.023C297.17 119.432 295.523 119.136 293.591 119.136H284.455V133.864ZM284.455 107.409H292.227C293.886 107.409 295.352 107.148 296.625 106.625C297.898 106.102 298.886 105.352 299.591 104.375C300.318 103.375 300.682 102.159 300.682 100.727C300.682 98.5682 299.909 96.9205 298.364 95.7841C296.818 94.625 294.864 94.0455 292.5 94.0455H284.455V107.409ZM327.716 94.4545V79.1818H388.398V94.4545H367.398V149H348.716V94.4545H327.716ZM457.432 105.364H438.205C438.068 103.773 437.705 102.33 437.114 101.034C436.545 99.7386 435.75 98.625 434.727 97.6932C433.727 96.7386 432.511 96.0114 431.08 95.5114C429.648 94.9886 428.023 94.7273 426.205 94.7273C423.023 94.7273 420.33 95.5 418.125 97.0455C415.943 98.5909 414.284 100.807 413.148 103.693C412.034 106.58 411.477 110.045 411.477 114.091C411.477 118.364 412.045 121.943 413.182 124.83C414.341 127.693 416.011 129.852 418.193 131.307C420.375 132.739 423 133.455 426.068 133.455C427.818 133.455 429.386 133.239 430.773 132.807C432.159 132.352 433.364 131.705 434.386 130.864C435.409 130.023 436.239 129.011 436.875 127.83C437.534 126.625 437.977 125.273 438.205 123.773L457.432 123.909C457.205 126.864 456.375 129.875 454.943 132.943C453.511 135.989 451.477 138.807 448.841 141.398C446.227 143.966 442.989 146.034 439.125 147.602C435.261 149.17 430.773 149.955 425.659 149.955C419.25 149.955 413.5 148.58 408.409 145.83C403.341 143.08 399.33 139.034 396.375 133.693C393.443 128.352 391.977 121.818 391.977 114.091C391.977 106.318 393.477 99.7727 396.477 94.4545C399.477 89.1136 403.523 85.0795 408.614 82.3523C413.705 79.6023 419.386 78.2273 425.659 78.2273C430.068 78.2273 434.125 78.8295 437.83 80.0341C441.534 81.2386 444.784 83 447.58 85.3182C450.375 87.6136 452.625 90.4432 454.33 93.8068C456.034 97.1705 457.068 101.023 457.432 105.364ZM485.429 149V96.6364H504.247V149H485.429ZM494.838 91.1818C492.293 91.1818 490.111 90.3409 488.293 88.6591C486.474 86.9773 485.565 84.9545 485.565 82.5909C485.565 80.2273 486.474 78.2045 488.293 76.5227C490.111 74.8409 492.293 74 494.838 74C497.406 74 499.588 74.8409 501.384 76.5227C503.202 78.2045 504.111 80.2273 504.111 82.5909C504.111 84.9545 503.202 86.9773 501.384 88.6591C499.588 90.3409 497.406 91.1818 494.838 91.1818ZM513.562 149V79.1818H543.699C548.881 79.1818 553.415 80.2045 557.301 82.25C561.188 84.2955 564.21 87.1705 566.369 90.875C568.528 94.5795 569.608 98.9091 569.608 103.864C569.608 108.864 568.494 113.193 566.267 116.852C564.063 120.511 560.96 123.33 556.96 125.307C552.983 127.284 548.335 128.273 543.017 128.273H525.017V113.545H539.199C541.426 113.545 543.324 113.159 544.892 112.386C546.483 111.591 547.699 110.466 548.54 109.011C549.403 107.557 549.835 105.841 549.835 103.864C549.835 101.864 549.403 100.159 548.54 98.75C547.699 97.3182 546.483 96.2273 544.892 95.4773C543.324 94.7045 541.426 94.3182 539.199 94.3182H532.517V149H513.562ZM595.653 79.1818V149H576.835V79.1818H595.653ZM630.332 149.955C624.741 149.955 619.923 148.886 615.878 146.75C611.855 144.591 608.753 141.5 606.571 137.477C604.412 133.432 603.332 128.591 603.332 122.955C603.332 117.545 604.423 112.818 606.605 108.773C608.787 104.727 611.866 101.58 615.844 99.3295C619.821 97.0795 624.514 95.9545 629.923 95.9545C633.878 95.9545 637.457 96.5682 640.662 97.7955C643.866 99.0227 646.605 100.807 648.878 103.148C651.151 105.466 652.901 108.284 654.128 111.602C655.355 114.92 655.969 118.659 655.969 122.818V127.182H609.196V116.818H638.651C638.628 115.318 638.241 114 637.491 112.864C636.764 111.705 635.776 110.807 634.526 110.17C633.298 109.511 631.901 109.182 630.332 109.182C628.81 109.182 627.412 109.511 626.139 110.17C624.866 110.807 623.844 111.693 623.071 112.83C622.321 113.966 621.923 115.295 621.878 116.818V128C621.878 129.682 622.23 131.182 622.935 132.5C623.639 133.818 624.651 134.852 625.969 135.602C627.287 136.352 628.878 136.727 630.741 136.727C632.037 136.727 633.219 136.545 634.287 136.182C635.378 135.818 636.31 135.295 637.082 134.614C637.855 133.909 638.423 133.068 638.787 132.091H655.969C655.378 135.727 653.98 138.886 651.776 141.568C649.571 144.227 646.651 146.295 643.014 147.773C639.401 149.227 635.173 149.955 630.332 149.955ZM679.312 96.6364L686.949 112.864L694.994 96.6364H713.676L699.631 122.818L714.358 149H695.812L686.949 132.364L678.358 149H659.54L674.403 122.818L660.494 96.6364H679.312ZM757.355 149H736.901L759.946 79.1818H785.855L808.901 149H788.446L773.173 98.4091H772.628L757.355 149ZM753.537 121.455H791.991V135.636H753.537V121.455ZM815.898 149V96.6364H834.716V149H815.898ZM825.307 91.1818C822.761 91.1818 820.58 90.3409 818.761 88.6591C816.943 86.9773 816.034 84.9545 816.034 82.5909C816.034 80.2273 816.943 78.2045 818.761 76.5227C820.58 74.8409 822.761 74 825.307 74C827.875 74 830.057 74.8409 831.852 76.5227C833.67 78.2045 834.58 80.2273 834.58 82.5909C834.58 84.9545 833.67 86.9773 831.852 88.6591C830.057 90.3409 827.875 91.1818 825.307 91.1818Z" fill="white"/>
    <defs>
        <clipPath id="clip0_110_16">
            <rect width="227" height="227" fill="white"/>
        </clipPath>
    </defs>
</svg>